<svg xmlns="http://www.w3.org/2000/svg" version="1.1" xmlns:xlink="http://www.w3.org/1999/xlink" xmlns:svgjs="http://svgjs.dev/svgjs" viewBox="0 0 800 800" opacity="0.24"><defs><linearGradient x1="50%" y1="0%" x2="50%" y2="100%" id="ccchaos-grad"><stop stop-color="hsl(50, 98%, 60%)" stop-opacity="1" offset="0%"></stop><stop stop-color="hsl(290, 87%, 47%)" stop-opacity="1" offset="100%"></stop></linearGradient></defs><g stroke-width="1" stroke="url(#ccchaos-grad)" fill="none" stroke-linecap="round"><path d="M416.39 -42.3C424.28 -43.29 432.06 -44.05 439.73 -44.55 447.39 -44.97 454.92 -45.13 462.33 -45 469.72 -44.77 476.97 -44.25 484.07 -43.45 491.15 -42.52 498.07 -41.29 504.82 -39.78 511.53 -38.15 518.07 -36.23 524.41 -34.03 530.7 -31.72 536.8 -29.15 542.68 -26.33 548.51 -23.41 554.11 -20.26 559.49 -16.89 564.81 -13.45 569.91 -9.82 574.76 -6 579.57 -2.16 584.14 1.83 588.49 5.98 592.8 10.13 596.9 14.39 600.8 18.77 606.55 25.32 617.35 38.73 622.52 45.54 627.8 52.27 638.66 65.81 644.43 72.6 648.6 77.03 652.94 81.51 657.49 86.01 662.4 90.43 667.57 94.88 673.04 99.38 678.92 103.79 685.13 108.26 691.68 112.78 698.64 117.23 705.94 121.74 713.57 126.33 721.56 130.86 729.82 135.47 738.32 140.17 747.06 144.82 755.94 149.57 764.89 154.42 773.88 159.24 782.8 164.18 791.55 169.22 800.12 174.24 808.34 179.39 816.12 184.65 823.46 189.91 830.19 195.29 836.2 200.79 841.56 206.29 846.07 211.92 849.66 217.67 852.46 223.42 854.27 229.3 855.09 235.3 855.1 241.3 854.14 247.43 852.25 253.66 849.7 259.91 846.36 266.26 842.31 272.72 837.91 279.19 833.05 285.76 827.85 292.43 822.7 299.1 817.51 305.87 812.43 312.73 807.83 319.59 803.64 326.53 799.97 333.56 797.15 340.59 795.08 347.7 793.84 354.88 793.66 362.06 794.39 369.32 796.03 376.65 798.73 383.98 802.2 391.29 806.35 398.59 811.27 405.88 816.61 413.17 822.22 420.43 828.17 427.71 834.07 434.97 839.77 442.22 845.34 449.48 850.41 456.74 854.85 463.99 858.76 471.26 861.8 478.53 863.91 485.81 865.23 493.12 865.5 500.44 864.71 507.78 863.03 515.16 860.3 522.57 856.56 530 852.02 537.48 846.58 545 840.33 552.56 833.48 560.17 826 567.83 818.01 575.53 809.68 583.3 801.04 591.11 792.2 598.96 783.32 606.87 774.42 614.82 765.6 622.8 756.99 630.83 748.59 638.88 740.47 646.95 732.74 655.03 725.38 663.11 718.4 671.16 711.91 679.2 705.83 687.18 700.16 695.08 694.99 702.93 690.2 710.66 685.76 718.24 681.78 725.71 678.08 732.98 674.63 740.03 671.54 746.91 668.61 753.5 665.81 759.79 661.99 768.68 654.55 784.11 650.71 790.51 642.34 799.89 627.36 807.72 621.33 808.23 614.88 807.93 600.39 805.2 592.38 803.01 586.86 801.47 581.09 799.78 575.08 797.99 568.99 796.38 562.68 794.78 556.17 793.26 549.6 792.07 542.84 791.06 535.91 790.29 528.94 789.99 521.82 790.02 514.56 790.39 507.28 791.33 499.87 792.67 492.36 794.42 484.83 796.75 477.2 799.49 469.49 802.61 461.77 806.26 453.97 810.23 446.1 814.47 438.22 819.1 430.29 823.88 422.29 828.76 414.29 833.81 406.33 838.73 398.4 843.44 390.48 848.09 382.6 852.38 374.76 856.23 366.91 859.81 359.11 862.83 351.35 865.25 343.58 867.23 335.85 868.52 328.16 869.11 320.47 869.17 312.81 868.49 305.19 867.09 297.56 865.14 289.97 862.48 282.42 859.15 274.86 855.33 267.35 850.89 259.87 845.9 252.39 840.51 244.96 834.66 237.58 828.39 230.21 821.87 222.89 815.04 215.63 807.95 208.39 800.77 201.22 793.43 194.13 786 187.06 778.61 180.09 771.2 173.22 763.82 166.38 756.6 159.67 749.47 153.07 742.46 146.54 735.69 140.14 729.08 133.88 722.64 127.7 716.48 121.67 710.52 115.81 704.74 110.03 699.25 104.42 693.95 98.99 688.82 93.64 683.97 88.48 679.26 83.5 674.69 78.59 670.36 73.86 666.12 69.32 661.97 62.67 656.04 50.27 644.51 44.48 638.79 38.85 633.16 28.19 621.52 23.13 615.44 18.12 609.23 8.54 596.02 3.96 588.96 0.91 584.18 -2.03 579.21 -4.86 574.05 -7.71 568.86 -10.44 563.48 -13.02 557.91 -15.61 552.32 -18.04 546.53 -20.3 540.57 -22.55 534.57 -24.61 528.4 -26.48 522.06 -28.32 515.69 -29.97 509.16 -31.4 502.48 -32.81 495.77 -34.02 488.91 -35.02 481.91 -36 474.89 -36.78 467.74 -37.38 460.45 -37.97 453.16 -38.38 445.74 -38.62 438.2 -38.87 430.66 -38.97 423.01 -38.9 415.24 -38.86 407.47 -38.66 399.69 -38.32 391.9 -37.99 384.11 -37.52 376.32 -36.88 368.52 -36.26 360.74 -35.46 352.95 -34.49 345.17 -33.52 337.4 -32.36 329.63 -31.01 321.88 -29.64 314.14 -28.06 306.41 -26.29 298.71 -24.48 291.01 -22.48 283.33 -20.28 275.69 -18.05 268.05 -15.63 260.45 -13.03 252.89 -10.42 245.34 -7.64 237.83 -4.71 230.38 -1.79 222.94 1.26 215.56 4.45 208.25 7.61 200.96 10.87 193.74 14.25 186.61 17.57 179.52 20.99 172.51 24.51 165.61 27.96 158.76 31.51 152.01 35.14 145.39 38.73 138.83 42.41 132.41 46.19 126.13 49.93 119.92 53.79 113.87 57.76 107.98 61.73 102.17 65.82 96.54 70.05 91.1 74.3 85.75 78.7 80.58 83.26 75.62 87.86 70.75 92.62 66.09 97.56 61.63 102.55 57.27 107.73 53.11 113.07 49.16 118.49 45.3 124.09 41.64 129.86 38.18 135.7 34.79 141.71 31.6 147.88 28.59 154.13 25.63 160.53 22.84 167.07 20.23 173.68 17.62 180.43 15.17 187.29 12.87 194.21 10.54 201.25 8.34 208.38 6.27 215.57 4.14 222.84 2.11 230.19 0.17 237.57 -1.84 245.03 -3.78 252.55 -5.64 260.1 -7.62 267.7 -9.53 275.35 -11.38 283.01 -13.35 290.72 -15.27 298.46 -17.13 306.22 -19.11 314 -21.03 321.81 -22.89 329.63 -24.85 337.48 -26.74 345.34 -28.54 353.2 -30.43 361.09 -32.22 368.98 -33.88 376.87 -35.6 384.78 -37.18 392.68 -38.6 400.58 -40.02 408.49 -41.26 416.38 -42.3" stroke-dasharray="8 6" transform="rotate(0, 400, 400)" opacity="0.05"></path><path d="M408.93 -22.5C416.33 -23.54 423.61 -24.34 430.76 -24.9 437.9 -25.39 444.9 -25.61 451.77 -25.57 458.62 -25.42 465.31 -25 471.85 -24.3 478.37 -23.48 484.73 -22.38 490.91 -20.99 497.07 -19.49 503.04 -17.71 508.84 -15.65 514.6 -13.49 520.17 -11.07 525.55 -8.39 530.9 -5.63 536.06 -2.62 541.02 0.59 545.96 3.88 550.7 7.37 555.27 11.05 559.82 14.76 564.2 18.65 568.41 22.68 572.64 26.72 576.73 30.89 580.69 35.18 584.7 39.44 588.62 43.8 592.47 48.25 596.42 52.65 600.34 57.12 604.25 61.65 608.33 66.12 612.45 70.63 616.64 75.19 621.06 79.66 625.6 84.18 630.3 88.73 635.28 93.18 640.46 97.68 645.86 102.2 651.59 106.63 657.57 111.1 663.82 115.61 670.41 120.03 677.27 124.49 684.4 128.99 691.84 133.42 699.52 137.9 707.42 142.44 715.55 146.91 723.84 151.45 732.23 156.05 740.72 160.6 749.21 165.23 757.63 169.95 765.98 174.62 774.13 179.38 781.99 184.23 789.58 189.05 796.75 193.98 803.4 199 809.58 204.01 815.11 209.12 819.93 214.34 824.11 219.55 827.49 224.87 830.01 230.3 832.28 238.49 831.42 255.44 828.43 264.19 825.67 270.06 822.25 276.03 818.27 282.12 814.05 288.2 809.48 294.39 804.68 300.69 800 306.98 795.32 313.37 790.8 319.86 786.75 326.35 783.08 332.94 779.91 339.62 777.52 346.29 775.79 353.07 774.79 359.93 774.75 366.79 775.5 373.74 777.06 380.78 779.55 387.82 782.72 394.86 786.49 401.92 790.97 408.97 795.82 416.03 800.93 423.1 806.38 430.17 811.82 437.26 817.11 444.35 822.35 451.46 827.18 458.58 831.5 465.71 835.4 472.86 838.59 480.03 840.98 487.22 842.71 494.44 843.53 501.68 843.41 508.95 842.53 516.24 840.69 523.57 837.93 530.94 834.42 538.33 830.06 545.76 824.91 553.23 819.15 560.73 812.74 568.27 805.76 575.83 798.39 583.44 790.61 591.07 782.53 598.71 774.29 606.39 765.91 614.07 757.46 621.76 749.09 629.46 740.79 637.14 732.63 644.79 724.71 652.43 717.04 660.02 709.63 667.53 702.59 674.99 695.87 682.36 689.48 689.6 683.5 696.75 677.86 703.74 672.54 710.54 667.63 717.2 663.01 723.63 658.66 729.81 654.66 735.8 650.88 741.5 647.27 746.87 642.34 754.39 633.17 767.14 628.75 772.27 619.91 779.48 605.42 784.89 599.92 784.94 594.14 784.37 581.33 781.6 574.29 779.62 566.92 777.59 550.93 773.55 542.36 771.83 536.53 771.05 530.49 770.45 524.28 770.08 518.02 770.15 511.59 770.51 505 771.2 498.38 772.38 491.62 773.93 484.71 775.83 477.79 778.24 470.74 781 463.57 784.09 456.39 787.64 449.11 791.46 441.71 795.5 434.32 799.88 426.83 804.39 419.25 808.96 411.66 813.69 404.08 818.29 396.51 822.71 388.95 827.07 381.39 831.11 373.85 834.77 366.31 838.2 358.79 841.13 351.29 843.52 343.79 845.54 336.32 846.96 328.87 847.74 321.42 848.06 314 847.72 306.61 846.72 299.22 845.23 291.86 843.1 284.55 840.34 277.23 837.12 269.96 833.33 262.74 829 255.52 824.29 248.36 819.11 241.26 813.51 234.17 807.64 227.15 801.43 220.2 794.94 213.29 788.31 206.45 781.47 199.71 774.49 193.01 767.48 186.41 760.39 179.92 753.27 173.48 746.23 167.17 739.22 160.99 732.27 154.87 725.47 148.9 718.78 143.08 712.21 137.33 705.85 131.74 699.63 126.31 693.57 120.96 687.74 115.78 682.06 110.78 676.54 105.85 671.25 101.09 666.11 96.5 661.09 91.98 656.3 87.63 651.61 83.45 647.01 77.32 640.44 65.87 627.78 60.51 621.6 55.28 615.57 45.38 603.41 40.67 597.21 36 590.97 27.05 577.96 22.78 571.13 18.53 564.16 10.51 549.44 6.77 541.67 4.3 536.42 1.96 531.01 -0.21 525.43 -2.4 519.83 -4.42 514.08 -6.28 508.16 -8.13 502.23 -9.8 496.14 -11.29 489.9 -12.76 483.65 -14.05 477.24 -15.15 470.69 -16.23 464.13 -17.13 457.44 -17.84 450.6 -18.54 443.76 -19.07 436.79 -19.41 429.7 -19.76 422.6 -19.93 415.38 -19.92 408.05 -19.92 400.71 -19.75 393.35 -19.4 385.97 -19.06 378.59 -18.55 371.19 -17.86 363.79 -17.17 356.4 -16.3 348.99 -15.26 341.59 -14.2 334.2 -12.95 326.81 -11.52 319.43 -10.07 312.06 -8.43 304.7 -6.61 297.37 -4.76 290.04 -2.74 282.74 -0.53 275.47 1.68 268.22 4.07 261 6.61 253.83 9.16 246.67 11.85 239.57 14.69 232.52 17.5 225.5 20.44 218.54 23.49 211.66 26.5 204.81 29.61 198.04 32.82 191.37 35.97 184.73 39.22 178.2 42.54 171.77 45.81 165.4 49.15 159.15 52.58 153.03 55.96 146.97 59.42 141.05 62.96 135.27 66.47 129.57 70.07 124.03 73.78 118.65 77.47 113.35 81.27 108.22 85.19 103.28 89.12 98.41 93.18 93.73 97.37 89.25 101.6 84.84 105.97 80.63 110.5 76.61 115.07 72.66 119.8 68.91 124.7 65.35 129.65 61.86 134.77 58.55 140.05 55.43 145.4 52.35 150.91 49.44 156.57 46.71 162.31 43.99 168.19 41.44 174.22 39.03 180.32 36.61 186.55 34.33 192.91 32.18 199.34 29.99 205.88 27.91 212.52 25.93 219.22 23.88 226.02 21.92 232.91 20.04 239.84 18.07 246.85 16.17 253.93 14.33 261.05 12.38 268.23 10.48 275.45 8.64 282.71 6.67 290.01 4.76 297.35 2.89 304.71 0.91 312.09 -1.01 319.5 -2.87 326.93 -4.84 334.38 -6.74 341.83 -8.56 349.29 -10.45 356.76 -12.25 364.23 -13.94 371.71 -15.67 379.17 -17.26 386.62 -18.7 394.08 -20.15 401.51 -21.42 408.92 -22.5" stroke-dasharray="0 6" transform="rotate(4.714285714285714, 400, 400)" opacity="0.10"></path><path d="M400 -2.7C406.9 -3.77 413.68 -4.62 420.33 -5.23 426.97 -5.77 433.48 -6.06 439.85 -6.1 446.21 -6.04 452.43 -5.71 458.49 -5.11 464.54 -4.4 470.44 -3.42 476.18 -2.17 484.69 0.01 500.88 5.86 508.57 9.5 516.1 13.52 530.4 22.78 537.22 27.96 541.74 31.53 546.16 35.27 550.47 39.16 554.84 43.07 559.13 47.12 563.36 51.29 567.69 55.45 571.98 59.72 576.27 64.09 580.69 68.42 585.15 72.83 589.65 77.31 594.34 81.74 599.11 86.22 604 90.76 609.11 95.22 614.37 99.73 619.8 104.28 625.48 108.75 631.35 113.26 637.43 117.8 643.78 122.25 650.34 126.74 657.12 131.26 664.14 135.7 671.37 140.17 678.78 144.68 686.39 149.12 694.14 153.6 702 158.12 709.97 162.57 717.98 167.08 725.97 171.64 733.94 176.14 741.8 180.7 749.49 185.33 757 189.91 764.23 194.57 771.09 199.3 777.62 203.99 783.67 208.76 789.17 213.62 794.19 218.45 798.58 223.37 802.27 228.39 806.55 235.92 810.36 251.47 809.87 259.48 808.74 264.84 806.9 270.31 804.42 275.89 801.54 281.45 798.15 287.12 794.31 292.9 790.34 298.66 786.11 304.53 781.74 310.51 777.52 316.48 773.36 322.55 769.37 328.73 765.84 334.9 762.68 341.17 759.96 347.54 757.96 353.91 756.54 360.38 755.77 366.95 755.85 373.52 756.62 380.18 758.08 386.95 760.37 393.72 763.27 400.51 766.68 407.32 770.73 414.14 775.12 420.97 779.75 427.83 784.71 434.69 789.69 441.57 794.58 448.48 799.46 455.39 804.02 462.33 808.17 469.3 812.01 476.28 815.25 483.28 817.82 490.31 819.86 497.36 821.12 504.44 821.56 511.54 821.35 518.67 820.3 525.82 818.4 533 815.84 540.2 812.49 547.42 808.38 554.67 803.69 561.93 798.34 569.21 792.4 576.49 786.04 583.8 779.21 591.1 772.01 598.39 764.56 605.68 756.87 612.96 749.01 620.2 741.11 627.42 733.15 634.59 725.22 641.69 717.4 648.75 709.7 655.72 702.15 662.58 694.84 669.37 687.75 676.01 680.9 682.5 674.37 688.88 668.1 695.07 662.1 701.04 656.44 706.86 651.04 712.43 645.9 717.74 641.08 722.86 636.48 727.67 632.08 732.16 625.97 738.4 614.76 748.72 609.5 752.74 599.52 758.14 584.31 761.7 578.91 761.46 573.38 760.78 561.43 758.21 554.98 756.53 548.29 754.91 533.86 751.92 526.13 750.78 518.16 750.27 501.25 750.9 492.34 752.18 486.32 753.59 480.15 755.29 473.82 757.31 467.47 759.78 460.98 762.54 454.35 765.58 447.72 769.01 440.95 772.67 434.06 776.52 427.17 780.65 420.16 784.88 413.04 789.16 405.92 793.58 398.78 797.88 391.63 802 384.48 806.09 377.32 809.88 370.16 813.34 363.01 816.6 355.85 819.43 348.71 821.78 341.57 823.82 334.44 825.31 327.33 826.25 320.22 826.79 313.14 826.74 306.09 826.09 299.04 825.02 292.03 823.36 285.05 821.12 278.1 818.47 271.18 815.28 264.32 811.58 257.48 807.52 250.69 803 243.97 798.06 237.28 792.86 230.67 787.3 224.13 781.43 217.64 775.39 211.24 769.11 204.94 762.64 198.69 756.1 192.54 749.43 186.52 742.67 180.55 735.93 174.71 729.16 169.01 722.4 163.38 715.72 157.88 709.1 152.54 702.53 147.27 696.12 142.15 689.8 137.19 683.58 132.31 677.55 127.58 671.63 123.02 665.83 118.52 660.23 114.18 654.75 110 649.39 105.87 644.21 101.9 639.14 98.08 634.17 92.47 627.01 81.96 613.24 77.02 606.56 72.18 600.08 62.99 587.21 58.6 580.76 54.23 574.35 45.84 561.21 41.81 554.43 37.79 547.58 30.16 533.3 26.57 525.84 23.05 518.25 16.63 502.37 13.77 494.07 11.9 488.48 10.2 482.75 8.66 476.89 7.13 471.01 5.77 465 4.58 458.85 3.41 452.7 2.42 446.41 1.6 439.99 0.8 433.57 0.18 427.03 -0.24 420.36 -0.66 413.69 -0.9 406.9 -0.95 400 -0.98 393.09 -0.83 386.16 -0.5 379.2 -0.14 372.25 0.38 365.28 1.1 358.3 1.84 351.33 2.76 344.35 3.86 337.36 4.99 330.39 6.3 323.42 7.79 316.46 9.3 309.51 10.99 302.58 12.85 295.67 14.74 288.78 16.79 281.91 19 275.08 21.22 268.27 23.59 261.49 26.11 254.77 28.62 248.07 31.25 241.43 34.02 234.85 36.75 228.31 39.6 221.83 42.55 215.43 45.45 209.07 48.44 202.8 51.52 196.63 54.54 190.5 57.64 184.48 60.82 178.58 63.93 172.72 67.11 166.99 70.37 161.4 73.56 155.86 76.83 150.46 80.18 145.21 83.48 140.03 86.86 135 90.33 130.14 95.53 123.03 106.44 109.77 112.17 103.63 118.04 97.77 130.5 87.02 137.11 82.13 143.93 77.47 158.39 69.02 166.03 65.19 171.24 62.69 176.59 60.33 182.07 58.09 187.62 55.83 193.31 53.69 199.11 51.65 204.98 49.56 210.97 47.57 217.07 45.66 223.23 43.68 229.48 41.77 235.83 39.92 242.23 37.99 248.72 36.1 255.27 34.27 261.87 32.34 268.54 30.44 275.26 28.59 282.02 26.63 288.82 24.71 295.67 22.84 302.54 20.86 309.45 18.92 316.37 17.05 323.32 15.08 330.29 13.17 337.26 11.35 344.25 9.45 351.25 7.65 358.23 5.95 365.23 4.21 372.21 2.61 379.17 1.15 386.14 -0.3 393.08 -1.6 399.99 -2.7" stroke-dasharray="7 7" transform="rotate(9.428571428571429, 400, 400)" opacity="0.14"></path><path d="M391.06 17.08C397.48 15.99 403.79 15.11 409.98 14.45 416.17 13.86 422.24 13.51 428.19 13.4 437.04 13.5 454.1 15.14 462.31 16.68 470.38 18.65 485.91 24.03 493.38 27.4 500.75 31.15 515.04 39.86 522 44.77 526.66 48.16 531.27 51.72 535.83 55.45 540.47 59.2 545.09 63.1 549.71 67.12 554.43 71.16 559.18 75.3 563.97 79.55 568.9 83.78 573.89 88.1 578.98 92.5 584.23 96.86 589.59 101.29 595.08 105.77 600.76 110.2 606.59 114.69 612.58 119.21 618.77 123.67 625.12 128.17 631.63 132.71 638.34 137.18 645.21 141.67 652.22 146.2 659.4 150.66 666.68 155.15 674.07 159.67 681.55 164.13 689.07 168.61 696.6 173.14 704.14 177.6 711.61 182.1 718.97 186.64 726.22 191.13 733.27 195.66 740.06 200.25 746.62 204.78 752.82 209.38 758.62 214.04 764.05 218.65 768.98 223.33 773.37 228.08 778.95 235.2 786.14 249.77 787.65 257.25 787.71 264.77 783.91 280.26 780.28 288.22 777.4 293.55 774.11 298.98 770.49 304.5 766.81 310.01 762.96 315.62 759.02 321.33 755.28 327.03 751.63 332.83 748.15 338.73 745.12 344.63 742.42 350.63 740.13 356.73 738.48 362.82 737.35 369.02 736.78 375.32 736.95 381.61 737.73 388.01 739.1 394.52 741.21 401.02 743.84 407.56 746.92 414.12 750.56 420.68 754.51 427.27 758.69 433.88 763.18 440.51 767.71 447.16 772.18 453.83 776.69 460.51 780.95 467.22 784.89 473.95 788.6 480.7 791.83 487.47 794.5 494.26 796.75 501.06 798.34 507.88 799.23 514.73 799.58 521.58 799.18 528.45 798.05 535.33 796.33 542.22 793.88 549.12 790.74 556.02 787.05 562.92 782.73 569.82 777.83 576.69 772.49 583.57 766.66 590.42 760.4 597.23 753.86 604.02 746.99 610.76 739.88 617.43 732.63 624.07 725.23 630.62 717.75 637.07 710.27 643.46 702.81 649.73 695.39 655.86 688.09 661.9 680.92 667.78 673.89 673.48 667.07 679.05 660.43 684.42 654 689.56 647.82 694.54 641.86 699.28 636.1 703.74 630.62 708.03 625.34 712.03 620.25 715.72 613.07 720.79 599.82 728.99 593.63 732.09 582.11 736.06 565.36 738.31 559.73 737.94 554.08 737.27 542.28 735.11 536.07 733.79 529.71 732.62 516.21 730.68 509.05 730.11 501.7 730.14 486.16 731.7 477.98 733.34 472.46 734.93 466.78 736.77 460.95 738.87 455.12 741.37 449.13 744.11 443.01 747.08 436.89 750.39 430.62 753.88 424.23 757.52 417.84 761.41 411.33 765.37 404.69 769.37 398.06 773.48 391.4 777.48 384.71 781.32 378.02 785.13 371.32 788.68 364.6 791.93 357.89 795.03 351.18 797.73 344.47 800.03 337.76 802.05 331.07 803.6 324.38 804.66 317.71 805.38 311.06 805.57 304.44 805.23 297.84 804.52 291.26 803.28 284.73 801.52 278.22 799.39 271.76 796.75 265.36 793.64 258.98 790.2 252.67 786.32 246.43 782.03 240.23 777.47 234.1 772.56 228.07 767.33 222.08 761.91 216.18 756.23 210.39 750.33 204.66 744.32 199.04 738.15 193.53 731.84 188.09 725.5 182.77 719.09 177.59 712.62 172.47 706.2 167.49 699.76 162.65 693.34 157.88 687.01 153.25 680.73 148.77 674.5 144.35 668.41 140.08 662.39 135.96 656.46 131.89 650.68 127.97 644.98 124.19 639.38 120.44 633.94 116.83 628.59 113.36 623.32 109.9 618.21 106.57 613.17 103.36 608.19 98.6 600.96 89.56 586.9 85.27 580.01 80.99 573.27 72.77 559.84 68.81 553.09 64.83 546.37 57.15 532.66 53.47 525.62 49.8 518.54 42.88 503.88 39.67 496.29 36.53 488.6 30.91 472.62 28.45 464.34 26.87 458.78 25.45 453.09 24.19 447.29 22.94 441.49 21.87 435.56 20.97 429.53 20.1 423.48 19.4 417.33 18.89 411.07 18.41 404.8 18.12 398.42 18.02 391.94 17.95 385.47 18.08 378.96 18.4 372.44 18.75 365.92 19.29 359.39 20.02 352.85 20.79 346.31 21.75 339.78 22.88 333.24 24.06 326.72 25.41 320.2 26.94 313.7 28.49 307.21 30.22 300.74 32.11 294.3 34.02 287.88 36.09 281.49 38.31 275.14 40.54 268.81 42.9 262.53 45.39 256.3 47.88 250.1 50.48 243.96 53.19 237.89 55.88 231.86 58.66 225.9 61.54 220.03 64.36 214.19 67.27 208.45 70.26 202.81 73.18 197.21 76.18 191.73 79.24 186.35 82.23 181.04 85.29 175.84 88.41 170.77 93.02 163.33 102.49 149.23 107.36 142.6 112.24 136.21 122.4 124.32 127.7 118.82 133.09 113.56 144.47 103.9 150.47 99.49 156.64 95.26 169.7 87.54 176.59 84.01 183.69 80.58 198.61 74.21 206.42 71.24 211.72 69.23 217.14 67.3 222.66 65.44 228.24 63.49 233.92 61.61 239.7 59.79 245.52 57.86 251.43 55.99 257.42 54.16 263.44 52.22 269.55 50.33 275.71 48.47 281.91 46.5 288.16 44.58 294.46 42.7 300.79 40.71 307.15 38.77 313.55 36.89 319.97 34.92 326.41 33.02 332.86 31.19 339.33 29.3 345.81 27.5 352.29 25.8 358.78 24.07 365.26 22.46 371.72 20.99 378.19 19.52 384.64 18.21 391.05 17.09" stroke-dasharray="2 1" transform="rotate(14.142857142857142, 400, 400)" opacity="0.19"></path><path d="M383.6 36.88C392.51 35.32 409.89 33.33 418.34 32.95 426.7 32.93 442.95 34.25 450.84 35.6 458.65 37.35 473.86 42.22 481.3 45.32 488.7 48.78 503.31 56.9 510.56 61.5 520.39 67.95 530.22 75.06 540.14 82.73 550.49 90.48 561.09 98.69 572.04 107.25 583.55 115.75 595.53 124.51 607.98 133.49 621.02 142.29 634.5 151.25 648.3 160.34 662.43 169.19 676.6 178.18 690.56 187.3 704.23 196.16 717.18 205.19 729.03 214.38 739.8 223.36 748.91 232.55 756.01 241.96 761.41 251.21 764.5 260.73 765.19 270.53 764.47 277.86 759.82 292.88 756.11 300.57 753.31 305.72 750.21 310.95 746.86 316.27 743.51 321.57 740.06 326.97 736.57 332.45 733.29 337.93 730.13 343.5 727.14 349.16 724.57 354.82 722.3 360.57 720.4 366.42 719.07 372.27 718.19 378.21 717.8 384.25 718.06 390.29 718.84 396.43 720.13 402.66 722.06 408.9 724.43 415.17 727.19 421.46 730.46 427.75 734 434.07 737.74 440.42 741.78 446.77 745.87 453.14 749.92 459.53 754.05 465.93 758 472.35 761.69 478.79 765.23 485.23 768.38 491.69 771.07 498.16 773.44 504.63 775.26 511.12 776.49 517.61 777.28 524.1 777.43 530.59 776.93 537.07 775.94 543.55 774.3 550.02 772.02 556.47 766.02 569.34 757.74 582.06 747.53 594.56 736.06 606.92 723.32 618.94 709.74 630.5 695.86 641.76 681.77 652.42 667.8 662.34 654.29 671.79 641.25 680.35 628.8 687.89 617.17 694.81 606.17 700.61 595.78 705.23 586.18 709.21 577.02 712.02 568.19 713.67 559.91 714.88 551.74 715.13 543.54 714.54 535.65 713.93 527.53 712.85 519.1 711.49 512.8 710.78 499.66 709.87 492.81 709.82 485.83 710.34 471.21 712.72 463.57 714.67 458.42 716.39 453.14 718.34 447.73 720.5 442.31 722.99 436.76 725.69 431.09 728.57 425.41 731.75 419.6 735.07 413.68 738.5 407.76 742.15 401.72 745.86 395.57 749.57 389.43 753.39 383.25 757.1 377.04 760.66 370.84 764.21 364.62 767.52 358.39 770.56 352.17 773.48 345.95 776.06 339.72 778.27 333.51 780.26 327.3 781.84 321.11 782.98 314.94 783.84 308.79 784.23 302.67 784.16 296.58 783.76 290.52 782.89 284.5 781.55 278.52 779.88 272.58 777.76 266.7 775.19 260.86 772.33 255.09 769.05 249.39 765.38 238.12 757.29 227.18 747.9 216.66 737.44 206.34 726.47 196.47 714.81 187.11 702.7 177.97 690.57 169.35 678.3 161.28 666.03 153.38 654.1 146.01 642.34 139.16 630.82 132.38 619.78 126.06 609.01 120.18 598.49 114.23 588.45 108.62 578.59 103.35 568.87 97.88 559.51 92.68 550.17 87.74 540.8 82.55 531.67 77.6 522.38 72.95 512.9 69.37 505.82 62.57 491.36 59.39 483.94 56.26 476.46 50.59 461.07 48.08 453.14 45.72 445.12 41.8 428.59 40.27 420.09 39.33 414.39 38.58 408.59 38.01 402.7 37.48 396.81 37.14 390.82 36.99 384.75 36.9 378.68 37 372.59 37.29 366.5 37.64 360.41 38.18 354.31 38.91 348.22 39.69 342.13 40.66 336.05 41.81 329.98 43.01 323.91 44.38 317.87 45.93 311.84 47.51 305.83 49.25 299.85 51.16 293.9 53.09 287.97 55.16 282.07 57.38 276.23 59.6 270.41 61.96 264.64 64.44 258.93 66.9 253.25 69.48 247.64 72.16 242.1 77.41 231.11 83.02 220.46 88.92 210.21 94.57 200.12 100.47 190.48 106.58 181.34 112.42 172.38 118.48 163.95 124.78 156.1 130.85 148.42 137.22 141.32 143.91 134.82 150.49 128.44 157.46 122.62 164.85 117.36 172.25 112.12 180.12 107.37 188.46 103.07 196.91 98.66 205.84 94.61 215.23 90.88 224.77 86.9 234.75 83.13 245.12 79.58 253.03 76.73 269.32 71.06 277.67 68.24 283.29 66.27 288.98 64.34 294.72 62.45 300.48 60.46 306.29 58.53 312.14 56.64 318 54.68 323.91 52.78 329.83 50.96 335.77 49.08 341.73 47.29 347.7 45.6 353.68 43.87 359.67 42.27 365.65 40.81 371.64 39.34 377.62 38.02 383.59 36.88" stroke-dasharray="3 8" transform="rotate(18.857142857142858, 400, 400)" opacity="0.23"></path><path d="M378.83 56.68C389.97 54.48 400.89 53.1 411.55 52.54 422.22 52.3 432.67 52.98 442.88 54.58 453.14 56.57 463.23 59.49 473.18 63.28 483.25 67.45 493.28 72.45 503.31 78.19 513.58 84.22 523.97 90.89 534.53 98.14 545.47 105.52 556.68 113.37 568.22 121.61 580.18 129.83 592.49 138.37 605.12 147.14 618.08 155.79 631.25 164.63 644.48 173.62 657.73 182.43 670.74 191.38 683.26 200.45 695.26 209.31 706.34 218.32 716.17 227.46 724.89 236.42 731.96 245.55 737.13 254.86 740.82 264.01 742.47 273.39 742.06 283 740.36 292.5 736.91 302.27 732 312.31 726.66 322.28 720.64 332.57 714.38 343.16 709.02 353.71 704.34 364.6 700.78 375.83 699.22 387.04 699.32 398.6 701.15 410.53 705.2 422.45 710.59 434.46 716.9 446.52 724.34 458.59 731.74 470.73 738.59 482.88 745.11 495.04 750.16 507.21 753.42 519.33 755.27 531.42 754.89 543.44 752.27 555.29 747.97 567.07 741.55 578.62 733.26 589.86 723.7 600.92 712.75 611.56 700.76 621.67 688.23 631.48 675.21 640.65 661.97 649.06 648.87 657.03 635.94 664.15 623.33 670.3 611.25 675.95 599.63 680.6 588.49 684.2 577.97 687.33 567.89 689.48 558.16 690.68 548.96 691.63 539.97 691.82 531.1 691.38 522.57 691.07 513.99 690.44 505.29 689.66 496.76 689.49 487.98 689.52 478.91 689.92 469.89 691.36 460.5 693.41 450.73 696.16 440.95 700.11 430.76 704.78 420.17 710.07 409.56 716.37 398.56 723.01 387.18 729.77 375.8 736.91 364.35 743.48 352.88 749.22 341.44 754.56 330.02 758.62 318.69 761.23 307.42 762.9 296.28 762.9 285.33 761.23 274.49 758.45 263.89 754.03 253.6 748.1 243.45 741.23 233.65 733.09 224.25 723.88 215.03 714.09 206.23 703.53 197.91 692.42 189.75 681.14 182.06 669.56 174.87 657.85 167.78 646.29 161.14 634.76 154.96 623.35 148.78 612.26 142.98 601.35 137.54 590.63 131.99 580.29 126.72 570.11 121.73 560.07 116.52 550.36 111.52 540.71 106.75 531.09 101.71 521.71 96.89 512.25 92.33 502.71 87.53 493.3 83.04 483.71 78.91 473.92 74.66 464.2 70.84 454.22 67.53 443.98 64.24 433.76 61.54 423.25 59.49 412.45 57.58 401.65 56.39 390.55 55.97 379.18 55.78 367.81 56.39 356.45 57.77 345.13 59.38 333.84 61.73 322.61 64.77 311.51 67.97 300.46 71.8 289.56 76.2 278.87 80.63 268.26 85.53 257.89 90.85 247.84 96.06 237.89 101.59 228.28 107.39 219.08 112.96 210 118.76 201.36 124.74 193.2 130.44 185.18 136.34 177.65 142.43 170.65 148.27 163.77 154.34 157.4 160.67 151.56 166.85 145.78 173.34 140.49 180.17 135.67 186.94 130.82 194.12 126.38 201.68 122.32 209.29 118.1 217.32 114.17 225.77 110.52 234.3 106.58 243.24 102.84 252.56 99.27 261.98 95.34 271.75 91.54 281.83 87.88 291.98 83.85 302.41 79.97 313.04 76.29 323.73 72.33 334.59 68.65 345.58 65.34 356.58 61.92 367.68 59 378.82 56.68" stroke-dasharray="6 0" transform="rotate(23.57142857142857, 400, 400)" opacity="0.28"></path><path d="M377.54 76.48C387.99 74.28 398.34 72.84 408.56 72.18 418.81 71.81 428.95 72.29 439.01 73.63 449.12 75.33 459.2 77.9 469.26 81.3 479.45 85.07 489.71 89.62 500.05 94.89 510.61 100.45 521.34 106.65 532.26 113.43 543.47 120.37 554.91 127.79 566.59 135.63 578.53 143.5 590.68 151.7 602.95 160.18 615.34 168.59 627.71 177.23 639.88 186.03 651.87 194.71 663.39 203.54 674.2 212.5 684.39 221.3 693.52 230.23 701.37 239.29 708.15 248.19 713.37 257.24 716.87 266.44 719.13 275.51 719.63 284.75 718.42 294.19 716.25 303.52 712.7 313.07 708.02 322.85 703.18 332.56 697.87 342.52 692.47 352.75 687.97 362.93 684.13 373.4 681.25 384.16 680.15 394.89 680.43 405.93 682.18 417.26 685.83 428.6 690.61 439.97 696.17 451.34 702.78 462.72 709.41 474.09 715.64 485.43 721.72 496.76 726.63 508.02 730.1 519.17 732.48 530.28 733 541.22 731.59 551.93 728.76 562.54 724.02 572.85 717.53 582.78 709.83 592.51 700.71 601.78 690.45 610.49 679.51 618.92 667.85 626.69 655.74 633.72 643.51 640.39 631.16 646.25 618.88 651.25 606.88 655.85 595.12 659.58 583.68 662.42 572.68 664.95 562.01 666.67 551.68 667.64 541.77 668.5 532.11 668.79 522.65 668.62 513.5 668.68 504.44 668.54 495.39 668.35 486.53 668.78 477.58 669.42 468.49 670.4 459.49 672.33 450.27 674.77 440.82 677.79 431.39 681.84 421.68 686.47 411.7 691.58 401.71 697.52 391.43 703.73 380.89 709.98 370.35 716.56 359.81 722.61 349.31 727.92 338.83 732.92 328.43 736.8 318.15 739.42 307.93 741.28 297.88 741.67 288.05 740.6 278.3 738.57 268.81 735.08 259.64 730.21 250.58 724.48 241.87 717.54 233.54 709.55 225.33 700.98 217.53 691.59 210.15 681.57 202.87 671.28 196.01 660.58 189.57 649.62 183.17 638.68 177.15 627.63 171.51 616.58 165.81 605.72 160.43 594.93 155.34 584.26 150.08 573.86 145.06 563.57 140.27 553.41 135.23 543.51 130.37 533.69 125.7 523.93 120.77 514.37 116.03 504.81 111.51 495.23 106.78 485.78 102.33 476.24 98.2 466.59 93.97 457.02 90.15 447.29 86.8 437.39 83.49 427.52 80.75 417.45 78.63 407.19 76.68 396.94 75.43 386.48 74.95 375.83 74.71 365.19 75.27 354.61 76.6 344.14 78.17 333.68 80.48 323.35 83.47 313.18 86.64 303.05 90.42 293.11 94.75 283.41 99.14 273.77 103.98 264.39 109.23 255.34 114.38 246.37 119.85 237.74 125.57 229.51 131.09 221.37 136.81 213.65 142.71 206.37 148.34 199.18 154.14 192.44 160.1 186.18 165.8 179.98 171.69 174.23 177.77 168.94 183.67 163.65 189.82 158.77 196.23 154.3 202.54 149.75 209.17 145.53 216.13 141.63 223.06 137.54 230.36 133.69 238.02 130.07 245.7 126.16 253.76 122.41 262.16 118.81 270.62 114.87 279.42 111.05 288.53 107.37 297.68 103.36 307.13 99.5 316.82 95.84 326.54 91.93 336.49 88.3 346.62 85.03 356.76 81.67 367.08 78.79 377.53 76.48" stroke-dasharray="3 1" transform="rotate(28.285714285714285, 400, 400)" opacity="0.32"></path><path d="M379.93 96.27C389.79 94.09 399.65 92.61 409.49 91.86 419.36 91.36 429.23 91.67 439.12 92.76 449.07 94.18 459.07 96.41 469.14 99.42 479.33 102.76 489.63 106.85 500.05 111.64 510.64 116.7 521.39 122.39 532.3 128.65 543.39 135.09 554.63 142.03 565.98 149.38 577.45 156.82 588.96 164.62 600.41 172.7 611.81 180.78 622.98 189.1 633.77 197.62 644.22 206.07 654.04 214.68 663.05 223.44 671.37 232.08 678.62 240.86 684.62 249.76 689.66 258.55 693.28 267.46 695.39 276.5 696.51 285.43 696.17 294.52 694.43 303.74 692.03 312.89 688.57 322.21 684.26 331.71 679.98 341.15 675.4 350.79 670.84 360.64 667.16 370.45 664.07 380.49 661.82 390.74 661.11 400.98 661.55 411.46 663.2 422.16 666.48 432.86 670.69 443.54 675.56 454.15 681.38 464.77 687.25 475.32 692.84 485.77 698.42 496.2 703.09 506.49 706.61 516.6 709.33 526.65 710.51 536.48 710.07 546.01 708.47 555.44 705.19 564.51 700.33 573.15 694.38 581.62 687.05 589.6 678.55 597.01 669.31 604.17 659.23 610.7 648.51 616.55 637.49 622.1 626.14 626.93 614.63 631.01 603.18 634.8 591.76 637.85 580.48 640.17 569.45 642.31 558.64 643.81 548.06 644.73 537.8 645.65 527.76 646.16 517.91 646.35 508.34 646.83 498.91 647.21 489.57 647.59 480.42 648.57 471.28 649.76 462.13 651.25 453.08 653.58 443.95 656.33 434.71 659.55 425.52 663.64 416.18 668.18 406.68 673.07 397.2 678.66 387.55 684.43 377.74 690.18 367.94 696.22 358.22 701.76 348.61 706.65 339.02 711.3 329.56 714.98 320.29 717.57 311.05 719.54 302.01 720.25 293.22 719.67 284.49 718.29 276.03 715.62 267.89 711.7 259.81 707.03 252.07 701.22 244.69 694.42 237.37 687.04 230.42 678.84 223.85 669.97 217.3 660.77 211.12 651.08 205.3 641.04 199.44 630.9 193.91 620.55 188.68 610.09 183.34 599.71 178.25 589.3 173.4 578.92 168.35 568.71 163.49 558.55 158.81 548.48 153.88 538.6 149.1 528.79 144.49 519.04 139.63 509.46 134.93 499.91 130.45 490.38 125.77 480.96 121.35 471.52 117.25 462.04 113.05 452.63 109.25 443.14 105.9 433.57 102.61 424.04 99.85 414.39 97.71 404.63 95.75 394.89 94.46 385.02 93.92 375.05 93.65 365.09 94.15 355.25 95.41 345.58 96.92 335.91 99.15 326.41 102.05 317.12 105.14 307.85 108.83 298.81 113.06 290.03 117.36 281.29 122.11 272.83 127.25 264.7 132.33 256.61 137.72 248.87 143.37 241.51 148.84 234.2 154.51 227.27 160.35 220.75 165.95 214.28 171.7 208.21 177.58 202.56 183.21 196.92 189 191.67 194.94 186.81 200.67 181.9 206.6 177.35 212.75 173.12 218.74 168.78 224.99 164.71 231.51 160.91 237.95 156.9 244.69 153.09 251.75 149.47 258.77 145.56 266.12 141.8 273.79 138.17 281.46 134.22 289.46 130.4 297.77 126.71 306.08 122.72 314.69 118.89 323.58 115.28 332.47 111.44 341.63 107.89 351.03 104.68 360.43 101.39 370.07 98.56 379.93 96.27" stroke-dasharray="10 5" transform="rotate(33, 400, 400)" opacity="0.37"></path><path d="M385.63 116.07C394.96 113.92 404.36 112.42 413.82 111.59 423.3 110.99 432.87 111.12 442.5 111.97 452.19 113.13 461.98 115.03 471.87 117.64 481.84 120.57 491.93 124.2 502.14 128.47 512.44 133.02 522.86 138.18 533.37 143.88 543.94 149.78 554.57 156.16 565.18 162.98 575.78 169.91 586.26 177.2 596.53 184.81 606.61 192.46 616.33 200.36 625.52 208.49 634.31 216.59 642.38 224.88 649.59 233.33 656.15 241.71 661.66 250.23 666.01 258.87 669.56 267.44 671.87 276.13 672.9 284.93 673.18 293.65 672.27 302.5 670.26 311.46 667.84 320.36 664.61 329.4 660.78 338.57 657.1 347.7 653.27 356.98 649.52 366.4 646.59 375.8 644.18 385.37 642.49 395.09 642.11 404.8 642.68 414.67 644.22 424.7 647.16 434.72 650.84 444.65 655.06 454.47 660.14 464.29 665.28 473.97 670.21 483.48 675.26 492.98 679.6 502.27 683.03 511.33 685.91 520.33 687.54 529.05 687.84 537.43 687.22 545.71 685.17 553.61 681.72 561.06 677.34 568.37 671.68 575.18 664.88 581.45 657.36 587.52 648.92 593.01 639.76 597.88 630.19 602.54 620.13 606.57 609.74 609.95 599.23 613.17 588.58 615.77 577.9 617.78 567.3 619.73 556.77 621.17 546.37 622.18 536.15 623.29 526.08 624.1 516.18 624.69 506.47 625.61 496.89 626.48 487.45 627.4 478.16 628.87 468.95 630.54 459.8 632.46 450.75 635.1 441.71 638.09 432.67 641.43 423.68 645.5 414.65 649.9 405.58 654.56 396.53 659.79 387.41 665.11 378.25 670.38 369.09 675.9 360.09 680.95 351.28 685.42 342.47 689.72 333.85 693.17 325.46 695.69 317.08 697.71 308.93 698.65 301.06 698.48 293.21 697.65 285.63 695.68 278.37 692.61 271.13 688.88 264.2 684.13 257.61 678.44 251.02 672.22 244.75 665.19 238.81 657.48 232.84 649.42 227.18 640.83 221.81 631.81 216.36 622.63 211.16 613.15 206.21 603.47 201.11 593.78 196.21 583.97 191.5 574.11 186.58 564.33 181.8 554.55 177.18 544.79 172.32 535.16 167.58 525.56 163 516.01 158.19 506.59 153.53 497.19 149.08 487.84 144.46 478.58 140.09 469.33 136.03 460.09 131.9 450.91 128.15 441.71 124.83 432.49 121.59 423.31 118.86 414.08 116.72 404.82 114.77 395.56 113.48 386.26 112.9 376.93 112.59 367.6 113.03 358.46 114.19 349.52 115.63 340.58 117.75 331.86 120.52 323.37 123.49 314.89 127.04 306.66 131.12 298.71 135.29 290.78 139.91 283.13 144.91 275.81 149.88 268.51 155.17 261.53 160.71 254.91 166.12 248.3 171.73 242.05 177.5 236.16 183.08 230.28 188.79 224.75 194.63 219.58 200.24 214.38 205.98 209.52 211.85 204.98 217.51 200.36 223.33 196.03 229.31 191.97 235.12 187.77 241.14 183.8 247.38 180.05 253.49 176.08 259.86 172.28 266.48 168.64 273.03 164.73 279.87 160.95 286.99 157.3 294.07 153.36 301.45 149.54 309.12 145.86 316.77 141.93 324.71 138.16 332.95 134.6 341.16 130.86 349.67 127.39 358.46 124.26 367.23 121.08 376.29 118.32 385.62 116.07" stroke-dasharray="6 3" transform="rotate(37.714285714285715, 400, 400)" opacity="0.41"></path><path d="M393.68 135.87C402.52 133.76 411.46 132.25 420.49 131.36 429.54 130.67 438.7 130.64 447.94 131.28 457.22 132.18 466.61 133.76 476.08 136 485.6 138.51 495.22 141.68 504.89 145.45 514.59 149.47 524.34 154.07 534.08 159.18 543.82 164.5 553.49 170.3 563.01 176.52 572.44 182.87 581.63 189.59 590.48 196.64 599.09 203.76 607.22 211.15 614.76 218.78 621.88 226.43 628.27 234.28 633.81 242.3 638.78 250.29 642.79 258.44 645.76 266.71 648.11 274.94 649.4 283.3 649.65 291.75 649.36 300.16 648.15 308.67 646.09 317.28 643.8 325.85 640.94 334.53 637.64 343.29 634.6 352.04 631.49 360.89 628.49 369.83 626.25 378.76 624.45 387.8 623.24 396.94 623.14 406.07 623.81 415.29 625.25 424.6 627.85 433.91 631.04 443.07 634.67 452.06 639.05 461.04 643.49 469.84 647.8 478.43 652.27 486.99 656.22 495.3 659.45 503.34 662.34 511.32 664.23 519 665.03 526.31 665.16 533.54 664.08 540.38 661.82 546.78 658.78 553.06 654.6 558.88 649.37 564.2 643.48 569.37 636.68 574.03 629.12 578.14 621.11 582.13 612.51 585.58 603.47 588.49 594.2 591.33 584.65 593.68 574.91 595.56 565.14 597.46 555.3 598.99 545.46 600.18 535.69 601.54 525.98 602.7 516.36 603.71 506.85 605.06 497.44 606.4 488.15 607.79 478.96 609.68 469.87 611.74 460.87 614.01 451.96 616.89 443.1 620.02 434.32 623.42 425.57 627.42 416.87 631.65 408.2 636.03 399.55 640.89 390.92 645.78 382.33 650.59 373.73 655.59 365.36 660.18 357.23 664.24 349.09 668.17 341.19 671.38 333.54 673.79 325.89 675.81 318.49 676.91 311.37 677.05 304.24 676.67 297.38 675.3 290.82 672.96 284.24 670.08 277.95 666.27 271.95 661.6 265.91 656.47 260.15 650.57 254.67 644 249.12 637.09 243.81 629.62 238.74 621.69 233.56 613.56 228.58 605.07 223.79 596.32 218.84 587.48 214.04 578.46 209.4 569.32 204.54 560.19 199.81 550.99 195.21 541.76 190.39 532.59 185.68 523.41 181.12 514.26 176.36 505.18 171.76 496.12 167.36 487.1 162.82 478.15 158.53 469.22 154.53 460.32 150.5 451.47 146.84 442.63 143.59 433.82 140.44 425.03 137.78 416.25 135.67 407.49 133.77 398.74 132.48 389.99 131.87 381.27 131.54 372.55 131.91 364.05 132.97 355.79 134.3 347.52 136.29 339.5 138.89 331.73 141.7 323.95 145.08 316.44 148.96 309.21 152.95 301.99 157.38 295.05 162.2 288.41 167.02 281.77 172.15 275.44 177.54 269.42 182.85 263.4 188.36 257.7 194.05 252.31 199.58 246.9 205.25 241.79 211.04 236.98 216.64 232.12 222.36 227.54 228.19 223.23 233.82 218.81 239.59 214.63 245.49 210.68 251.22 206.58 257.11 202.66 263.17 198.92 269.1 194.98 275.23 191.18 281.57 187.52 287.82 183.61 294.31 179.83 301.04 176.17 307.7 172.26 314.63 168.47 321.83 164.83 328.98 160.97 336.42 157.28 344.13 153.81 351.81 150.18 359.79 146.83 368.05 143.8 376.29 140.73 384.83 138.06 393.67 135.87" stroke-dasharray="12 1" transform="rotate(42.42857142857142, 400, 400)" opacity="0.46"></path><path d="M402.77 155.66C411.11 153.62 419.55 152.12 428.07 151.19 436.6 150.42 445.22 150.26 453.92 150.7 462.63 151.36 471.41 152.63 480.24 154.51 489.08 156.63 497.95 159.34 506.81 162.6 515.66 166.1 524.46 170.13 533.17 174.65 541.8 179.37 550.28 184.54 558.52 190.12 566.6 195.84 574.37 201.94 581.71 208.35 588.8 214.86 595.36 221.66 601.32 228.69 606.89 235.78 611.75 243.08 615.84 250.56 619.45 258.05 622.23 265.71 624.13 273.49 625.57 281.26 626.15 289.16 625.89 297.15 625.3 305.12 623.99 313.2 622.05 321.35 620.04 329.48 617.61 337.69 614.9 345.97 612.48 354.23 610.06 362.57 607.75 370.97 606.12 379.35 604.86 387.8 604.07 396.3 604.21 404.79 604.94 413.32 606.27 421.88 608.57 430.44 611.31 438.8 614.39 446.96 618.12 455.12 621.91 463.05 625.59 470.73 629.49 478.39 632.99 485.77 635.95 492.86 638.7 499.91 640.68 506.63 641.8 513 642.27 522.26 637.37 538.67 632.05 545.73 627.63 550.21 622.37 554.23 616.35 557.81 609.9 561.31 602.82 564.38 595.23 567.02 587.37 569.65 579.12 571.9 570.59 573.79 561.93 575.76 553.08 577.45 544.13 578.9 535.16 580.55 526.15 582.06 517.15 583.47 508.18 585.21 499.25 586.96 490.39 588.75 481.59 590.99 472.86 593.36 464.22 595.88 455.63 598.9 447.12 602.12 438.69 605.5 430.31 609.38 421.99 613.4 413.75 617.5 405.54 621.98 397.38 626.44 389.31 630.79 381.24 635.31 373.42 639.43 365.87 643.09 358.31 646.67 351 649.62 343.96 651.88 336.9 653.86 330.1 655.05 323.56 655.43 317 655.4 310.7 654.52 304.66 652.8 298.58 650.64 292.75 647.67 287.17 643.93 281.53 639.78 276.11 634.93 270.93 629.45 265.65 623.64 260.57 617.29 255.68 610.47 250.66 603.43 245.8 596.01 241.09 588.27 236.22 580.41 231.47 572.32 226.84 564.04 222.03 555.73 217.32 547.29 212.73 538.76 207.95 530.25 203.29 521.69 198.76 513.11 194.08 504.56 189.56 496.01 185.24 487.48 180.81 478.99 176.64 470.52 172.76 462.08 168.87 453.68 165.33 445.31 162.2 436.97 159.16 428.66 156.6 420.38 154.57 412.14 152.73 403.92 151.47 395.73 150.85 387.6 150.49 379.47 150.79 371.58 151.74 363.95 152.95 356.3 154.78 348.91 157.19 341.78 159.81 334.64 162.96 327.75 166.6 321.14 170.37 314.52 174.56 308.17 179.13 302.1 183.74 296.02 188.67 290.21 193.86 284.69 199 279.14 204.37 273.86 209.91 268.86 215.34 263.8 220.93 259.01 226.64 254.48 232.2 249.86 237.88 245.48 243.66 241.32 249.28 237.05 255.01 232.97 260.86 229.09 266.55 225.04 272.37 221.16 278.33 217.43 284.16 213.5 290.15 209.71 296.31 206.04 302.37 202.16 308.62 198.39 315.08 194.75 321.46 190.89 328.07 187.17 334.91 183.59 341.7 179.84 348.74 176.26 356.02 172.9 363.28 169.41 370.8 166.19 378.59 163.29 386.37 160.35 394.42 157.79 402.76 155.67" stroke-dasharray="6 7" transform="rotate(47.14285714285714, 400, 400)" opacity="0.50"></path><path d="M411.41 175.46C419.21 173.49 427.07 172.02 434.98 171.06 442.9 170.24 450.86 169.96 458.85 170.22 466.84 170.66 474.85 171.66 482.84 173.19 490.81 174.93 498.75 177.2 506.6 179.98 514.4 182.96 522.09 186.43 529.59 190.36 537 194.46 544.17 198.99 551.04 203.91 557.74 208.97 564.07 214.39 569.95 220.12 575.59 225.96 580.71 232.08 585.25 238.45 589.47 244.88 593.05 251.54 595.95 258.38 598.5 265.26 600.34 272.31 601.46 279.49 602.28 286.69 602.42 294.01 601.91 301.42 601.21 308.85 599.99 316.36 598.3 323.94 596.65 331.52 594.72 339.17 592.59 346.86 590.78 354.56 588.99 362.3 587.31 370.06 586.22 377.83 585.42 385.63 584.98 393.43 585.31 401.23 586.08 409.04 587.3 416.83 589.3 424.61 591.64 432.19 594.22 439.53 597.35 446.87 600.52 453.96 603.62 460.8 606.95 467.61 609.97 474.15 612.59 480.39 616.08 489.54 619.33 506.13 618.77 513.51 616.73 520.45 607.94 532.38 601.37 537.38 596.37 540.58 590.76 543.43 584.63 545.94 578.21 548.49 571.36 550.75 564.15 552.74 556.78 554.85 549.14 556.75 541.31 558.48 533.39 560.41 525.35 562.25 517.23 564.02 509.09 566.09 500.92 568.17 492.76 570.29 484.61 572.78 476.48 575.37 468.4 578.05 460.36 581.14 452.36 584.35 444.44 587.67 436.55 591.37 428.72 595.15 420.98 598.95 413.26 603.05 405.61 607.09 398.05 610.99 390.49 615.04 383.19 618.72 376.15 622 369.1 625.21 362.3 627.89 355.75 630 349.17 631.88 342.84 633.11 336.75 633.65 330.63 633.88 324.73 633.39 319.07 632.19 313.35 630.63 307.84 628.37 302.54 625.44 297.17 622.17 291.98 618.27 286.98 613.8 281.87 609.03 276.93 603.75 272.13 598.01 267.21 592.06 262.41 585.71 257.75 579.04 252.92 572.22 248.21 565.13 243.6 557.82 238.83 550.44 234.16 542.89 229.61 535.21 224.9 527.51 220.31 519.71 215.86 511.86 211.3 504.02 206.9 496.13 202.7 488.24 198.45 480.36 194.43 472.48 190.71 464.63 187 456.79 183.63 448.98 180.65 441.21 177.78 433.45 175.35 425.73 173.41 418.06 171.66 410.4 170.45 402.79 169.83 395.25 169.45 387.71 169.68 380.41 170.51 373.36 171.59 366.3 173.24 359.49 175.43 352.92 177.82 346.34 180.72 340.01 184.07 333.92 187.57 327.83 191.48 321.97 195.75 316.37 200.08 310.74 204.73 305.36 209.65 300.22 214.57 295.05 219.71 290.1 225.04 285.39 230.31 280.62 235.74 276.07 241.3 271.73 246.76 267.3 252.34 263.07 258.03 259.02 263.59 254.86 269.26 250.86 275.02 247.01 280.66 243.03 286.42 239.17 292.29 235.46 298.04 231.57 303.92 227.8 309.94 224.15 315.87 220.32 321.95 216.61 328.2 213.02 334.37 209.25 340.73 205.62 347.28 202.15 353.77 198.53 360.48 195.09 367.39 191.87 374.27 188.55 381.38 185.49 388.71 182.72 396.03 179.94 403.59 177.5 411.4 175.46" stroke-dasharray="4 7" transform="rotate(51.85714285714286, 400, 400)" opacity="0.55"></path><path d="M418.17 195.26C425.37 193.38 432.58 191.96 439.79 190.99 447 190.13 454.2 189.76 461.36 189.85 468.51 190.11 475.61 190.85 482.63 192.06 489.63 193.45 496.52 195.31 503.25 197.62 509.93 200.11 516.42 203.03 522.68 206.37 528.84 209.87 534.72 213.76 540.26 218 545.65 222.39 550.66 227.1 555.23 232.12 559.59 237.25 563.48 242.65 566.84 248.29 569.97 254.01 572.54 259.95 574.54 266.07 576.31 272.25 577.5 278.6 578.13 285.08 578.58 291.6 578.51 298.25 577.95 304.99 577.33 311.75 576.32 318.6 574.97 325.52 573.74 332.44 572.31 339.43 570.75 346.45 569.51 353.48 568.29 360.54 567.16 367.62 566.53 374.69 566.12 381.78 565.96 388.85 566.43 395.92 567.21 402.97 568.32 409.98 570.05 416.99 572.02 423.78 574.15 430.33 576.74 436.89 579.35 443.2 581.89 449.25 584.66 455.29 587.2 461.07 589.43 466.56 592.55 474.63 595.99 489.25 596.04 495.76 594.99 501.94 589.07 512.72 584.26 517.35 578.4 521.74 563.69 529.32 555.08 532.63 549.04 534.89 542.69 537.01 536.09 539 529.37 541.19 522.46 543.3 515.41 545.37 508.3 547.7 501.09 550.03 493.82 552.37 486.54 555.03 479.22 557.73 471.9 560.49 464.58 563.57 457.27 566.72 450.01 569.91 442.75 573.4 435.53 576.9 428.37 580.38 421.22 584.09 414.12 587.72 407.1 591.2 400.08 594.78 393.29 598.05 386.73 600.94 380.16 603.81 373.82 606.21 367.69 608.13 358.57 610.5 341.3 612.05 333.12 611.16 325.03 609.27 309.6 602.16 302.21 597.05 297.23 593.24 292.38 588.95 287.66 584.22 282.81 579.31 278.08 574.01 273.45 568.38 268.69 562.62 264.03 556.56 259.48 550.27 254.79 543.88 250.2 537.3 245.73 530.55 241.15 523.76 236.69 516.85 232.38 509.84 227.99 502.81 223.77 495.71 219.76 488.58 215.72 481.44 211.92 474.28 208.4 467.11 204.92 459.95 201.76 452.79 198.97 445.66 196.29 438.54 194.02 431.44 192.2 424.4 190.56 417.35 189.42 410.35 188.8 403.41 188.41 396.47 188.58 389.75 189.29 383.26 190.22 376.77 191.68 370.49 193.63 364.44 195.78 358.38 198.39 352.53 201.43 346.91 204.61 341.27 208.18 335.84 212.09 330.64 216.1 325.4 220.41 320.37 224.99 315.54 229.59 310.68 234.43 306 239.47 301.53 244.48 296.99 249.66 292.63 254.99 288.44 260.26 284.17 265.65 280.06 271.16 276.1 276.58 272.04 282.11 268.11 287.73 264.32 293.26 260.41 298.9 256.61 304.62 252.93 310.26 249.11 316.01 245.4 321.87 241.81 327.65 238.07 333.56 234.45 339.58 230.95 345.55 227.32 351.67 223.83 357.92 220.49 364.13 217.04 370.51 213.77 377.04 210.72 383.55 207.59 390.23 204.71 397.08 202.1 403.93 199.49 410.95 197.19 418.16 195.26" stroke-dasharray="1 5" transform="rotate(56.57142857142857, 400, 400)" opacity="0.59"></path><path d="M421.94 215.05C428.48 213.29 434.97 211.93 441.4 210.96 447.83 210.09 454.19 209.64 460.45 209.61 466.71 209.7 472.85 210.21 478.86 211.14 484.83 212.2 490.65 213.68 496.27 215.56 507.33 219.74 517.44 225.47 526.29 232.52 534.64 240.05 541.48 248.78 546.57 258.47 551.02 268.47 553.68 279.28 554.54 290.68 555.06 302.25 554.18 314.29 552.18 326.61 551.38 332.8 550.44 339.05 549.41 345.33 548.67 351.62 547.95 357.94 547.29 364.26 547.04 370.6 546.94 376.93 547.01 383.24 547.57 389.55 548.35 395.84 549.34 402.07 550.83 408.3 552.45 414.33 554.18 420.14 557.33 428.74 563.69 444.78 566.56 452.19 568.43 457.03 569.97 461.63 571.11 465.97 573.09 474.62 573.07 482.27 570.98 488.88 567.97 495.57 562.83 501.36 555.81 506.32 547.97 511.59 538.54 516.29 527.91 520.54 516.83 525.47 504.89 530.26 492.42 534.97 486.13 537.69 479.75 540.43 473.32 543.18 466.87 546.18 460.38 549.19 453.88 552.2 447.38 555.43 440.88 558.64 434.39 561.79 427.9 565.12 421.43 568.33 414.99 571.4 408.56 574.55 402.3 577.41 396.23 579.94 390.15 582.46 384.25 584.58 378.52 586.3 369.98 588.49 353.67 590.27 345.87 589.8 335.43 588.24 325.49 584.67 316.05 579.27 306.3 573.12 296.91 565.32 287.94 556.18 278.58 546.55 269.58 535.83 261.04 524.35 252.21 512.64 243.93 500.37 236.42 487.79 232.65 481.48 229.12 475.11 225.85 468.72 222.64 462.32 219.73 455.9 217.17 449.48 214.71 443.07 212.62 436.65 210.95 430.27 209.44 423.88 208.37 417.52 207.78 411.2 207.38 404.89 207.49 398.76 208.08 392.82 208.86 386.88 210.12 381.12 211.82 375.56 213.7 369.99 216 364.6 218.69 359.4 221.52 354.18 224.71 349.14 228.23 344.29 235.53 334.48 243.96 325.33 253.24 316.85 262.55 308.13 272.54 299.96 283.01 292.35 293.3 284.37 304.02 276.83 315.06 269.77 325.88 262.25 337.08 255.14 348.62 248.55 354.33 245.09 360.14 241.77 366.05 238.62 371.93 235.38 377.93 232.31 384.03 229.45 390.12 226.54 396.33 223.86 402.65 221.43 408.96 219 415.39 216.87 421.93 215.06" stroke-dasharray="4 2" transform="rotate(61.285714285714285, 400, 400)" opacity="0.64"></path><path d="M422.11 234.85C433.74 231.64 444.98 229.86 455.71 229.49 466.37 229.5 476.41 230.98 485.63 233.83 494.66 237.13 502.7 241.76 509.56 247.58 516.07 253.79 521.26 261.07 525.02 269.24 528.41 277.7 530.41 286.92 531.06 296.71 531.65 306.67 531.23 317.11 530.02 327.84 529.4 338.65 528.53 349.68 527.68 360.76 528.12 371.87 529 382.99 530.37 393.93 533.23 404.88 536.26 415.11 539.19 424.54 542.87 433.96 545.8 442.58 547.71 450.36 549.51 458.15 549.81 465.15 548.51 471.35 546.64 477.66 543.05 483.3 537.88 488.32 532.12 493.66 524.92 498.57 516.55 503.12 507.79 508.24 498.09 513.21 487.72 518.04 477.19 523.61 466.16 529.15 454.86 534.53 443.53 540.59 432 546.36 420.42 551.6 408.83 557.11 397.72 561.46 387.13 564.52 376.49 567.32 366.3 568.54 356.57 568.16 346.7 567.24 337.2 564.65 328.09 560.52 318.76 555.83 309.73 549.71 301.08 542.37 292.17 534.62 283.62 525.84 275.54 516.27 267.3 506.49 259.62 496.07 252.71 485.26 245.87 474.37 239.97 463.17 235.26 451.86 230.95 440.54 228.04 429.14 226.75 417.8 226.14 406.46 227.28 395.7 230.02 385.56 233.37 375.38 238.18 365.78 244.23 356.77 250.67 347.66 258.16 339.06 266.48 331.01 274.94 322.76 284.06 314.95 293.68 307.61 303.26 299.98 313.26 292.74 323.56 285.93 333.75 278.78 344.27 272.03 355.02 265.8 365.69 259.27 376.66 253.3 387.85 248.06 399.02 242.71 410.47 238.23 422.1 234.85" stroke-dasharray="11 6" transform="rotate(66, 400, 400)" opacity="0.68"></path><path d="M418.64 254.65C428.74 251.71 438.33 250.01 447.3 249.5 456.22 249.27 464.46 250.28 471.87 252.45 479.14 254.96 485.49 258.6 490.81 263.26 495.93 268.22 499.97 274.13 502.88 280.83 505.63 287.77 507.34 295.41 508.07 303.59 508.9 311.92 509.01 320.71 508.55 329.8 508.63 338.98 508.51 348.39 508.33 357.88 509.14 367.41 510.16 376.98 511.39 386.45 513.74 395.91 516.07 404.81 518.23 413.08 521.01 421.35 523.2 429 524.61 435.99 526.07 443.03 526.42 449.47 525.55 455.31 524.39 461.28 521.9 466.77 518.13 471.79 513.97 477.08 508.6 482.06 502.16 486.73 495.43 491.84 487.79 496.79 479.41 501.55 470.89 506.84 461.76 511.99 452.21 516.9 442.62 522.27 432.67 527.31 422.49 531.8 412.3 536.5 402.37 540.19 392.75 542.79 383.11 545.25 373.73 546.42 364.68 546.31 355.54 545.84 346.66 544.01 338.08 540.92 329.37 537.44 320.93 532.75 312.82 526.99 304.58 520.93 296.69 513.92 289.26 506.15 281.8 498.2 274.88 489.61 268.68 480.55 262.61 471.42 257.41 461.91 253.26 452.17 249.47 442.43 246.9 432.5 245.73 422.51 245.11 412.51 246 402.93 248.25 393.8 251.01 384.64 255.05 375.91 260.18 367.63 265.68 359.26 272.14 351.29 279.37 343.75 286.78 336.05 294.85 328.71 303.4 321.76 312 314.61 321.01 307.79 330.31 301.38 339.6 294.73 349.15 288.47 358.88 282.7 368.58 276.74 378.47 271.31 388.46 266.56 398.45 261.74 408.55 257.71 418.64 254.65" stroke-dasharray="9 9" transform="rotate(70.71428571428572, 400, 400)" opacity="0.73"></path><path d="M412.12 274.44C420.64 271.82 428.62 270.23 435.99 269.64 443.31 269.24 449.98 269.86 455.9 271.44 464.27 274.64 476.77 285.78 480.85 293.42 483.27 298.92 484.93 305.04 485.89 311.66 487.02 318.4 487.64 325.57 487.82 333.06 488.46 340.6 488.91 348.41 489.23 356.34 490.26 364.3 491.33 372.36 492.42 380.4 494.29 388.44 496.03 396.07 497.53 403.25 499.53 410.43 501.03 417.16 501.93 423.43 503.07 432.69 500.79 449.29 497.1 456.79 494.11 461.89 490.13 466.74 485.24 471.32 480.18 476.22 474.29 480.94 467.68 485.43 460.97 490.28 453.63 494.93 445.78 499.28 437.9 503.94 429.56 508.24 420.86 512.01 412.16 515.93 403.53 518.99 395.05 521.14 386.56 523.23 378.21 524.29 370.05 524.32 361.85 524.14 353.83 522.89 346.04 520.62 338.2 518.1 330.57 514.58 323.27 510.17 315.92 505.55 308.9 500.11 302.33 493.98 295.79 487.7 289.77 480.81 284.4 473.44 279.19 466 274.73 458.15 271.19 450 267.96 441.83 265.75 433.4 264.71 424.81 264.1 416.22 264.74 407.86 266.53 399.82 268.72 391.76 271.98 383.98 276.18 376.52 280.7 369.01 286.06 361.77 292.1 354.87 298.34 347.87 305.19 341.14 312.49 334.75 319.88 328.22 327.68 321.98 335.74 316.12 343.83 310.11 352.17 304.46 360.63 299.27 369.11 293.96 377.71 289.15 386.33 284.94 394.95 280.72 403.59 277.17 412.12 274.44" stroke-dasharray="4 1" transform="rotate(75.42857142857143, 400, 400)" opacity="0.77"></path><path d="M403.6 294.24C410.56 291.97 417.03 290.53 422.95 289.91 431.53 289.57 445.66 293.06 451.14 296.74 455.97 301.33 462.68 313.7 464.76 321.23 466.15 326.47 467.17 332.12 467.85 338.07 468.88 344.06 469.7 350.32 470.34 356.75 471.47 363.19 472.51 369.79 473.44 376.45 474.9 383.11 476.13 389.51 477.1 395.61 478.88 404.64 480.35 421.25 479.67 428.86 478.29 436.34 471.73 450.28 466.55 456.81 462.76 461.29 458.28 465.58 453.18 469.63 448.02 473.91 442.27 477.95 436.01 481.67 429.73 485.58 422.97 489.14 415.81 492.21 408.64 495.39 401.43 497.84 394.25 499.57 387.07 501.27 379.93 502.17 372.91 502.26 365.88 502.25 358.96 501.4 352.22 499.76 345.48 497.97 338.93 495.39 332.66 492.1 326.4 488.68 320.45 484.57 314.9 479.87 309.42 475.07 304.4 469.72 299.95 463.91 295.65 458.05 291.98 451.78 289.08 445.17 286.41 438.55 284.58 431.62 283.68 424.47 283.11 417.31 283.54 410.26 284.88 403.4 286.53 396.52 289.05 389.8 292.33 383.31 295.86 376.78 300.1 370.43 304.92 364.34 309.92 358.18 315.44 352.24 321.37 346.58 327.41 340.84 333.8 335.35 340.44 330.19 347.14 324.95 354.06 320.03 361.08 315.52 368.13 310.96 375.27 306.83 382.39 303.22 389.53 299.62 396.63 296.59 403.6 294.24" stroke-dasharray="8 0" transform="rotate(80.14285714285714, 400, 400)" opacity="0.82"></path><path d="M394.48 314.04C405.38 310.32 414.73 309.26 422.26 310.57 429.78 312.23 435.59 316.22 439.61 322.09 443.93 328.23 446.91 336.09 448.64 345.11 451.3 354.24 453.29 364.36 454.47 375 456.94 385.63 458.22 395.76 458.2 405.07 458.7 414.49 457.27 423.31 453.83 431.27 450.35 439.61 444.64 447.34 436.95 454.09 429.13 461.36 419.42 467.68 408.16 472.41 396.89 477.39 385.25 479.97 373.86 480.21 362.52 480.24 351.47 477.76 341.34 473.05 331.38 468.05 322.5 460.94 315.42 452.18 308.82 443.29 304.34 432.92 302.66 421.52 301.86 410.12 304.07 398.79 308.72 388.02 314.07 377.19 321.57 366.81 330.51 357.33 339.82 347.7 350.29 338.91 361.21 331.49 372.26 323.99 383.58 317.95 394.48 314.04" stroke-dasharray="5 10" transform="rotate(84.85714285714285, 400, 400)" opacity="0.86"></path><path d="M386.28 333.84C394.29 330.93 401.3 329.96 407.12 330.71 415.37 332.94 426.7 345.15 430.16 354.33 432.69 360.82 434.52 368.22 435.49 376.21 437.16 384.2 437.74 392.03 437.28 399.42 437.16 406.87 435.68 413.99 432.87 420.49 430.11 427.19 425.84 433.38 420.19 438.74 414.5 444.35 407.43 449.13 399.16 452.62 390.89 456.24 382.28 458.07 373.82 458.22 365.41 458.29 357.23 456.59 349.77 453.29 342.47 449.88 336.01 444.9 330.91 438.64 326.13 432.31 322.88 424.76 321.63 416.28 320.91 407.79 322.31 399.19 325.45 390.89 329.02 382.58 334.16 374.53 340.4 367.14 346.89 359.71 354.3 352.92 362.13 347.2 370.05 341.47 378.26 336.86 386.28 333.84" stroke-dasharray="3 8" transform="rotate(89.57142857142857, 400, 400)" opacity="0.91"></path><path d="M380.33 353.63C390.85 349.66 399.42 350.73 405.12 355.6 411.28 360.65 415.43 369.24 416.51 379.96 418.79 390.67 417.47 401.55 413.09 410.75 408.96 420.23 401.1 428.34 390.31 432.82 379.51 437.53 368.02 437.38 358.45 433.19 349.25 428.86 342.49 420.5 340.61 409.3 339.72 398.1 344.03 386.29 351.48 376.22 359.4 366.15 369.8 357.81 380.33 353.63" stroke-dasharray="9 2" transform="rotate(94.28571428571428, 400, 400)" opacity="0.95"></path></g></svg>