<svg xmlns="http://www.w3.org/2000/svg" version="1.1" xmlns:xlink="http://www.w3.org/1999/xlink" xmlns:svgjs="http://svgjs.dev/svgjs" viewBox="0 0 800 800" opacity="0.2"><defs><linearGradient x1="50%" y1="0%" x2="50%" y2="100%" id="uundulate-grad"><stop stop-color="hsl(37, 99%, 67%)" stop-opacity="1" offset="45%"></stop><stop stop-color="hsl(316, 73%, 52%)" stop-opacity="1" offset="100%"></stop></linearGradient></defs><g stroke-width="2" stroke="url(#uundulate-grad)" fill="none"><path d="M618.7225578300129 293.9574135307183C686.6897823851572 418.36191355735104 591.5473767062059 638.5269988676677 516.0336778419178 694.9421943321156C440.51997897762976 751.3573897965633 324.2240278365746 689.1548517867009 256.2568032814303 564.750351760068C188.28957872628604 440.3458517334352 114.27730111293715 154.21578966872494 189.79099997722528 97.8005942042771C265.3046988415134 41.38539873982933 550.7553332748687 169.5529135040855 618.7225578300129 293.9574135307183C686.6897823851572 418.36191355735104 591.5473767062059 638.5269988676677 516.0336778419178 694.9421943321156 "></path><path d="M598.8386806133996 303.5976486642894C660.6270665726216 416.6926486885011 574.1339705008477 616.8427262433344 505.4851533514949 668.1292675746505C436.8363362021421 719.4158089059667 331.1127442557282 662.868047078819 269.32435829650626 549.7730470546073C207.5359723372842 436.67804703039576 140.2520835978761 176.55980878974992 208.90090074722895 125.27326745843374C277.5497178965818 73.98672612711755 537.0502946541775 190.50264864007772 598.8386806133996 303.5976486642894C660.6270665726216 416.6926486885011 574.1339705008477 616.8427262433344 505.4851533514949 668.1292675746505 "></path><path d="M578.9548033967862 313.2378837978604C634.564350760086 415.0233838196509 556.7205642954896 595.1584536190009 494.936628861072 641.3163408171854C433.1526934266544 687.47422801537 338.00146067488197 636.5812423709369 282.39191331158213 534.7957423491466C226.78236594828235 433.0102423273561 166.22686608281504 198.9038279107749 228.0108015172326 152.74594071259037C289.7947369516502 106.58805351440583 523.3452560334863 211.45238377606995 578.9548033967862 313.2378837978604C634.564350760086 415.0233838196509 556.7205642954896 595.1584536190009 494.936628861072 641.3163408171854 "></path><path d="M559.0709261801728 322.87811893143146C608.5016349475504 413.35411895080074 539.3071580901312 573.4741809946674 484.388104370649 614.5034140597204C429.46905065116675 655.5326471247733 344.8901770940357 610.2944376630552 295.4594683266581 519.8184376436859C246.02875955928045 429.3424376243165 192.20164856775398 221.24784703179995 247.12070228723627 180.218613966747C302.03975600671856 139.18938090169405 509.6402174127952 232.40211891206218 559.0709261801728 322.87811893143146C608.5016349475504 413.35411895080074 539.3071580901312 573.4741809946674 484.388104370649 614.5034140597204 "></path><path d="M539.1870947399266 332.51835406500254C582.438964911382 411.6848540819507 521.8937976611403 551.7899083703339 473.8396256565933 587.6904873022554C425.7854536520463 623.5910662341767 351.77893928955666 584.0076329551733 308.5270691181012 504.8411329382252C265.2751989466458 425.67463292127695 218.17647682906016 243.591866152825 266.2306488336071 207.69128722090363C314.28482083815413 171.79070828898227 495.9352245684711 253.3518540480544 539.1870947399266 332.51835406500254C582.438964911382 411.6848540819507 521.8937976611403 551.7899083703339 473.8396256565933 587.6904873022554 "></path><path d="M519.3032175233132 342.1585891985736C556.3762490988463 410.0155892131006 504.48039145578207 530.1056357460006 463.2911011661704 560.8775605447902C422.1018108765586 591.64948534358 358.6676557087104 557.7208282472914 321.59462413317715 489.8638282327644C284.52159255764394 422.0068282182374 244.1512593139991 265.93588527385 285.3405496036108 235.16396047506026C326.5298398932225 204.39203567627055 482.23018594778 274.30158918404663 519.3032175233132 342.1585891985736C556.3762490988463 410.0155892131006 504.48039145578207 530.1056357460006 463.2911011661704 560.8775605447902 "></path><path d="M499.4193403066997 351.7988243321447C530.3135332863108 408.34632434425055 487.06698525042384 508.4213631216671 452.7425766757474 534.0646337873252C418.41816810107105 559.7079044529834 365.5563721278641 531.4340235394095 334.66217914825313 474.88652352730367C303.7679861686421 418.3390235151978 270.12604179893805 288.27990439487496 304.45045037361444 262.6366337292169C338.7748589482909 236.99336306355877 468.5251473270887 295.25132432003886 499.4193403066997 351.7988243321447C530.3135332863108 408.34632434425055 487.06698525042384 508.4213631216671 452.7425766757474 534.0646337873252 "></path><path d="M479.5354630900864 361.43905946571573C504.2508174737752 406.67705947540037 469.6535790450656 486.7370904973337 442.1940521853245 507.2517070298602C414.7345253255834 527.7663235623867 372.44508854701786 505.14721883152765 347.72973416332906 459.90921882184296C323.01437977964025 414.67121881215826 296.100824283877 310.62392351589995 323.56035114361816 290.1093069833735C351.0198780033593 269.594690450847 454.8201087063976 316.2010594560311 479.5354630900864 361.43905946571573C504.2508174737752 406.67705947540037 469.6535790450656 486.7370904973337 442.1940521853245 507.2517070298602 "></path><path d="M459.6516163910511 371.0793098580759C478.1881321788177 405.00780986533937 452.24020335728557 465.0528331317894 431.6455582124797 480.43879553118416C411.05091306767383 495.82475793057904 379.33383548374974 478.86042938243475 360.7973196959831 444.93192937517125C342.26080390821653 411.00342936790776 322.07563728639406 332.96795789571405 342.67028243119995 317.58199549631917C363.2649275760058 302.19603309692434 441.11510060328453 337.1508098508124 459.6516163910511 371.0793098580759C478.1881321788177 405.00780986533937 452.24020335728557 465.0528331317894 431.6455582124797 480.43879553118416 "></path><path d="M439.7677239156487 380.71954499164696C452.1254011074931 403.33854499648925 434.8267818931383 443.3685605074559 421.0970184632677 453.62586877371916C407.36725503339716 463.8831770399824 386.2225366441144 452.5736246745529 373.86485945226997 429.95462466971054C361.50718226042557 407.3356246648682 348.050404512544 355.31197701673904 361.78016794241455 345.0546687504758C375.5099313722851 334.79736048421256 427.41004672380427 358.1005449868046 439.7677239156487 380.71954499164696C452.1254011074931 403.33854499648925 434.8267818931383 443.3685605074559 421.0970184632677 453.62586877371916 "></path><path d="M419.8838772166134 390.3597648664289C426.0627158125356 401.6692648688501 417.4134062053582 421.6842726243334 410.54852449042295 426.81292675746505C403.68364277548767 431.9415808905967 393.11128358084625 426.2868047078819 386.9324449849241 414.9773047054607C380.75360638900185 403.66780470303956 374.02521751506106 377.655980878975 380.89009922999634 372.52732674584337C387.7549809449316 367.3986726127118 413.7050386206912 379.0502648640078 419.8838772166134 390.3597648664289C426.0627158125356 401.6692648688501 417.4134062053582 421.6842726243334 410.54852449042295 426.81292675746505 "></path></g></svg>